<svg width="35" height="35" viewBox="0 0 35 35" fill="none" xmlns="http://www.w3.org/2000/svg">
<path d="M23.8933 23.9154C23.7526 24.056 23.5618 24.135 23.3629 24.135C23.164 24.135 22.9732 24.056 22.8326 23.9154L17.5293 18.6121L12.226 23.9154C12.0853 24.056 11.8946 24.135 11.6957 24.135C11.4968 24.135 11.306 24.056 11.1653 23.9154C11.0247 23.7747 10.9457 23.584 10.9457 23.385C10.9457 23.1861 11.0247 22.9954 11.1653 22.8547L16.4686 17.5514L11.1653 12.2481C11.0247 12.1075 10.9457 11.9167 10.9457 11.7178C10.9457 11.5189 11.0247 11.3281 11.1653 11.1874C11.306 11.0468 11.4968 10.9678 11.6957 10.9678C11.8946 10.9678 12.0853 11.0468 12.226 11.1874L17.5293 16.4907L22.8326 11.1874C22.9733 11.0468 23.164 10.9678 23.3629 10.9678C23.5618 10.9678 23.7526 11.0468 23.8933 11.1874C24.0339 11.3281 24.1129 11.5189 24.1129 11.7178C24.1129 11.9167 24.0339 12.1075 23.8933 12.2481L18.59 17.5514L23.8933 22.8547C24.0339 22.9954 24.1129 23.1861 24.1129 23.385C24.1129 23.584 24.0339 23.7747 23.8933 23.9154Z" fill="#101014"/>
</svg>
