<svg width="25" height="25" viewBox="0 0 25 25" fill="none" xmlns="http://www.w3.org/2000/svg">
<path d="M21.5 12.5513C21.5 12.7502 21.421 12.9409 21.2803 13.0816C21.1397 13.2223 20.9489 13.3013 20.75 13.3013H13.25V20.8013C13.25 21.0002 13.171 21.191 13.0303 21.3316C12.8897 21.4723 12.6989 21.5513 12.5 21.5513C12.3011 21.5513 12.1103 21.4723 11.9697 21.3316C11.829 21.191 11.75 21.0002 11.75 20.8013V13.3013L4.25 13.3013C4.05109 13.3013 3.86032 13.2223 3.71967 13.0816C3.57902 12.9409 3.5 12.7502 3.5 12.5513C3.5 12.3524 3.57902 12.1616 3.71967 12.0209C3.86032 11.8803 4.05109 11.8013 4.25 11.8013L11.75 11.8013L11.75 4.30127C11.75 4.10236 11.829 3.91159 11.9697 3.77094C12.1103 3.63029 12.3011 3.55127 12.5 3.55127C12.6989 3.55127 12.8897 3.63029 13.0303 3.77094C13.171 3.91159 13.25 4.10236 13.25 4.30127L13.25 11.8013H20.75C20.9489 11.8013 21.1397 11.8803 21.2803 12.0209C21.421 12.1616 21.5 12.3524 21.5 12.5513Z" fill="#101014"/>
</svg>
