<svg width="117" height="20" viewBox="0 0 117 20" fill="none" xmlns="http://www.w3.org/2000/svg">
<g clip-path="url(#clip0_1_1370)">
<path d="M5.35449 17.5L6.70866 11.6459L2.16699 7.70835L8.16699 7.18752L10.5003 1.66669L12.8337 7.18752L18.8337 7.70835L14.292 11.6459L15.6462 17.5L10.5003 14.3959L5.35449 17.5Z" fill="white"/>
<path d="M29.3545 17.5L30.7087 11.6459L26.167 7.70835L32.167 7.18752L34.5003 1.66669L36.8337 7.18752L42.8337 7.70835L38.292 11.6459L39.6462 17.5L34.5003 14.3959L29.3545 17.5Z" fill="white"/>
<path d="M53.3545 17.5L54.7087 11.6459L50.167 7.70835L56.167 7.18752L58.5003 1.66669L60.8337 7.18752L66.8337 7.70835L62.292 11.6459L63.6462 17.5L58.5003 14.3959L53.3545 17.5Z" fill="white"/>
<path d="M77.3545 17.5L78.7087 11.6459L74.167 7.70835L80.167 7.18752L82.5003 1.66669L84.8337 7.18752L90.8337 7.70835L86.292 11.6459L87.6462 17.5L82.5003 14.3959L77.3545 17.5Z" fill="white"/>
<path d="M101.354 17.5L102.709 11.6459L98.167 7.70835L104.167 7.18752L106.5 1.66669L108.834 7.18752L114.834 7.70835L110.292 11.6459L111.646 17.5L106.5 14.3959L101.354 17.5Z" fill="white"/>
</g>
<defs>
<clipPath id="clip0_1_1370">
<rect width="116" height="20" fill="white" transform="translate(0.500488)"/>
</clipPath>
</defs>
</svg>
